<svg xmlns="http://www.w3.org/2000/svg" fill="none" viewBox="0 0 22 19"><path fill="currentColor" d="M20 18V2H2v8H0V2Q0 1.176.588.588A1.93 1.93 0 0 1 2 0h18q.824 0 1.413.588Q22 1.175 22 2v14q0 .824-.587 1.413A1.93 1.93 0 0 1 20 18M8 11q-1.65 0-2.825-1.175T4 7t1.175-2.825T8 3t2.825 1.175T12 7t-1.175 2.825T8 11m0-2q.825 0 1.412-.588Q10 7.826 10 7q0-.824-.588-1.412A1.93 1.93 0 0 0 8 5q-.824 0-1.412.588A1.93 1.93 0 0 0 6 7q0 .824.588 1.412Q7.175 9 8 9M0 19v-2.8q0-.85.438-1.562.437-.713 1.162-1.088a14.8 14.8 0 0 1 3.15-1.163A13.8 13.8 0 0 1 8 12q1.65 0 3.25.387 1.6.388 3.15 1.163.724.375 1.162 1.087Q16 15.35 16 16.2V19zm2-2h12v-.8a.97.97 0 0 0-.5-.85q-1.35-.675-2.725-1.012a11.6 11.6 0 0 0-5.55 0Q3.85 14.675 2.5 15.35a.97.97 0 0 0-.5.85z"/></svg>