<svg xmlns="http://www.w3.org/2000/svg" fill="none" viewBox="0 0 34 34"><path fill="currentColor" d="m14.333 24.333 11.75-11.75-2.333-2.333-9.417 9.417-4.75-4.75L7.25 17.25zm2.334 9q-3.46 0-6.5-1.312-3.042-1.313-5.292-3.563t-3.562-5.291T0 16.667q0-3.46 1.313-6.5 1.312-3.042 3.562-5.292t5.292-3.562Q13.207 0 16.667 0q3.458 0 6.5 1.313 3.04 1.312 5.291 3.562 2.25 2.25 3.563 5.292 1.312 3.04 1.312 6.5 0 3.458-1.312 6.5-1.313 3.04-3.563 5.291-2.25 2.25-5.291 3.563-3.042 1.312-6.5 1.312m0-3.333q5.583 0 9.458-3.875T30 16.667t-3.875-9.459-9.458-3.875-9.459 3.875-3.875 9.459 3.875 9.458T16.667 30"/></svg>