<svg xmlns="http://www.w3.org/2000/svg" fill="none" viewBox="0 0 27 30"><path fill="currentColor" d="M11.4 22.575 21.975 12l-2.1-2.1-8.475 8.475L7.125 14.1l-2.1 2.1zM3 30a2.9 2.9 0 0 1-2.119-.881A2.9 2.9 0 0 1 0 27V6q0-1.237.881-2.119A2.9 2.9 0 0 1 3 3h6.3q.488-1.35 1.631-2.175A4.3 4.3 0 0 1 13.5 0q1.425 0 2.569.825A4.5 4.5 0 0 1 17.7 3H24q1.237 0 2.119.881.88.882.881 2.119v21q0 1.237-.881 2.119A2.9 2.9 0 0 1 24 30zm0-3h21V6H3zM13.5 4.875q.488 0 .806-.319.32-.318.319-.806 0-.488-.319-.806a1.1 1.1 0 0 0-.806-.319q-.488 0-.806.319a1.1 1.1 0 0 0-.319.806q0 .488.319.806.318.32.806.319"/></svg>