<svg xmlns="http://www.w3.org/2000/svg" fill="none" viewBox="0 0 16 20"><path fill="currentColor" d="M4.267 12.68c-.184 0-.308.018-.372.036v1.178c.076.018.171.023.302.023.479 0 .774-.242.774-.651 0-.366-.254-.586-.704-.586m3.487.012c-.2 0-.33.018-.407.036v2.61c.077.018.201.018.313.018.817.006 1.349-.444 1.349-1.396.006-.83-.479-1.268-1.255-1.268"/><path fill="currentColor" d="M10 0H2a2 2 0 0 0-2 2v16a2 2 0 0 0 2 2h12a2 2 0 0 0 2-2V6zM5.498 14.19c-.309.29-.765.42-1.296.42a2 2 0 0 1-.308-.018v1.426H3v-3.936q.606-.09 1.219-.082c.557 0 .953.106 1.22.319.254.202.426.533.426.923-.001.392-.131.723-.367.948m3.807 1.355c-.42.349-1.059.515-1.84.515-.468 0-.799-.03-1.024-.06v-3.917A8 8 0 0 1 7.66 12c.757 0 1.249.136 1.633.426.415.308.675.799.675 1.504 0 .763-.279 1.29-.663 1.615M13 12.77h-1.532v.911H12.9v.734h-1.432v1.604h-.906V12.03H13zM9 7V2l5 5z"/></svg>