<svg xmlns="http://www.w3.org/2000/svg" fill="none" viewBox="0 0 21 29"><path fill="currentColor" d="M0 28.5v-3h7.5v-3q-3.113 0-5.306-2.194T0 15q0-2.287 1.256-4.162T4.65 8.1q.3-1.275 1.331-2.062a3.76 3.76 0 0 1 2.344-.788L7.5 2.925 8.925 2.4 8.4 1.05 11.25 0l.45 1.425L13.125.9l4.125 11.25-1.425.525.525 1.425-2.85 1.05-.45-1.425-1.425.525-.9-2.475q-.562.525-1.294.787a3.35 3.35 0 0 1-1.481.188 3.55 3.55 0 0 1-1.538-.506 4.8 4.8 0 0 1-1.237-1.069q-1.012.6-1.594 1.612A4.37 4.37 0 0 0 3 15q0 1.875 1.313 3.188Q5.625 19.5 7.5 19.5h12v3H12v3h9v3zm12.975-17.175 1.35-.525-2.55-7.05-1.425.525zM8.25 10.5q.637 0 1.069-.431.43-.432.431-1.069 0-.637-.431-1.069A1.45 1.45 0 0 0 8.25 7.5q-.637 0-1.069.431A1.45 1.45 0 0 0 6.75 9q0 .637.431 1.069.432.43 1.069.431"/></svg>