<svg xmlns="http://www.w3.org/2000/svg" fill="none" viewBox="0 0 31 27"><path fill="currentColor" d="M21.375 11.25h6.75A2.25 2.25 0 0 0 30.375 9V2.25A2.25 2.25 0 0 0 28.125 0h-6.75a2.25 2.25 0 0 0-2.25 2.25V4.5h-2.25A3.375 3.375 0 0 0 13.5 7.875v4.5H9V11.25A2.25 2.25 0 0 0 6.75 9h-4.5A2.25 2.25 0 0 0 0 11.25v4.5A2.25 2.25 0 0 0 2.25 18h4.5A2.25 2.25 0 0 0 9 15.75v-1.125h4.5v4.5a3.375 3.375 0 0 0 3.375 3.375h2.25v2.25a2.25 2.25 0 0 0 2.25 2.25h6.75a2.25 2.25 0 0 0 2.25-2.25V18a2.25 2.25 0 0 0-2.25-2.25h-6.75a2.25 2.25 0 0 0-2.25 2.25v2.25h-2.25a1.125 1.125 0 0 1-1.125-1.125V7.875a1.125 1.125 0 0 1 1.125-1.125h2.25V9a2.25 2.25 0 0 0 2.25 2.25M6.75 15.75h-4.5v-4.5h4.5zM21.375 18h6.75v6.75h-6.75zm0-15.75h6.75V9h-6.75z"/></svg>