<svg xmlns="http://www.w3.org/2000/svg" fill="none" viewBox="0 0 14 14"><path fill="currentColor" d="M6.667 6.667a3.2 3.2 0 0 1-2.354-.98 3.2 3.2 0 0 1-.98-2.354q0-1.374.98-2.354A3.2 3.2 0 0 1 6.667 0 3.2 3.2 0 0 1 9.02.98 3.2 3.2 0 0 1 10 3.332a3.2 3.2 0 0 1-.98 2.355 3.2 3.2 0 0 1-2.353.979M0 13.333V11q0-.708.365-1.302a2.43 2.43 0 0 1 .968-.906q1.291-.645 2.625-.97A11.5 11.5 0 0 1 6.667 7.5q1.375 0 2.708.323A12.4 12.4 0 0 1 12 8.792q.604.312.969.906.364.594.364 1.302v2.333zm1.667-1.666h10V11a.81.81 0 0 0-.417-.708 11 11 0 0 0-2.27-.844 9.7 9.7 0 0 0-4.626 0q-1.146.281-2.27.844a.81.81 0 0 0-.417.708zm5-6.667q.687 0 1.177-.49.49-.489.49-1.177 0-.687-.49-1.177a1.6 1.6 0 0 0-1.177-.49q-.688 0-1.177.49T5 3.333t.49 1.177Q5.979 5 6.667 5"/></svg>