<svg xmlns="http://www.w3.org/2000/svg" fill="none" viewBox="0 0 17 17"><path fill="currentColor" d="M7.5 12.5h1.667V9.167H12.5V7.5H9.167V4.167H7.5V7.5H4.167v1.667H7.5zm.833 4.167a8.1 8.1 0 0 1-3.25-.657 8.4 8.4 0 0 1-2.645-1.78 8.4 8.4 0 0 1-1.782-2.647A8.1 8.1 0 0 1 0 8.333q0-1.729.656-3.25a8.4 8.4 0 0 1 1.781-2.645A8.4 8.4 0 0 1 5.084.656 8.1 8.1 0 0 1 8.333 0q1.73 0 3.25.656a8.4 8.4 0 0 1 2.646 1.781 8.4 8.4 0 0 1 1.781 2.646 8.1 8.1 0 0 1 .657 3.25 8.1 8.1 0 0 1-.657 3.25 8.4 8.4 0 0 1-1.78 2.646 8.4 8.4 0 0 1-2.647 1.781 8.1 8.1 0 0 1-3.25.657m0-1.667q2.792 0 4.73-1.937Q15 11.125 15 8.333q0-2.79-1.937-4.729-1.938-1.937-4.73-1.937-2.79 0-4.729 1.937-1.937 1.938-1.937 4.73 0 2.79 1.937 4.729Q5.542 15 8.334 15"/></svg>