<svg xmlns="http://www.w3.org/2000/svg" fill="none" viewBox="0 0 15 15"><path fill="currentColor" d="M4.167 5q.354 0 .593-.24.24-.24.24-.593a.8.8 0 0 0-.24-.594.8.8 0 0 0-.593-.24.8.8 0 0 0-.594.24.8.8 0 0 0-.24.594q0 .354.24.593.24.24.594.24m0 3.333q.354 0 .593-.24Q5 7.855 5 7.5a.8.8 0 0 0-.24-.594.8.8 0 0 0-.593-.24.8.8 0 0 0-.594.24.8.8 0 0 0-.24.594q0 .354.24.594t.594.24m0 3.334q.354 0 .593-.24.24-.24.24-.594a.8.8 0 0 0-.24-.593.8.8 0 0 0-.593-.24.8.8 0 0 0-.594.24.8.8 0 0 0-.24.593q0 .354.24.594t.594.24M1.667 15q-.688 0-1.177-.49A1.6 1.6 0 0 1 0 13.333V1.667Q0 .979.49.49.979 0 1.667 0h9.166L15 4.167v9.166q0 .688-.49 1.177-.489.49-1.177.49zm0-1.667h11.666V5H10V1.667H1.667zm0-11.666V5zv11.666z"/></svg>