<svg xmlns="http://www.w3.org/2000/svg" fill="none" viewBox="0 0 16 15"><path fill="currentColor" d="m5.475 15-.3-2.4a3 3 0 0 1-.46-.225 6 6 0 0 1-.421-.281l-2.231.937L0 9.47l1.931-1.463a2 2 0 0 1-.018-.253v-.506q0-.122.018-.253L0 5.53l2.063-3.56 2.23.937q.207-.15.432-.281t.45-.225l.3-2.4H9.6l.3 2.4q.244.095.46.225.215.13.421.281l2.231-.937 2.063 3.562-1.931 1.463q.018.131.018.253v.506a1 1 0 0 1-.037.253l1.931 1.463-2.062 3.562-2.213-.937q-.206.15-.431.281t-.45.225L9.6 15zm1.313-1.5h1.48l.263-1.988q.582-.15 1.078-.44.498-.29.91-.703l1.856.768.731-1.274-1.612-1.22q.093-.262.131-.552a4.6 4.6 0 0 0 0-1.182 2.7 2.7 0 0 0-.131-.553l1.612-1.218-.731-1.275-1.856.787a4.2 4.2 0 0 0-.91-.722 4.2 4.2 0 0 0-1.078-.44L8.287 1.5h-1.48l-.263 1.987q-.582.15-1.078.441a4.5 4.5 0 0 0-.91.703L2.7 3.862l-.731 1.276 1.612 1.2a3 3 0 0 0-.131.562 4.6 4.6 0 0 0 0 1.181q.038.282.131.563L1.97 9.863l.731 1.274 1.856-.787q.412.43.91.722.496.29 1.078.44zm.787-3.375a2.53 2.53 0 0 0 1.856-.769A2.53 2.53 0 0 0 10.2 7.5a2.53 2.53 0 0 0-.769-1.856 2.53 2.53 0 0 0-1.856-.769q-1.106 0-1.866.769A2.55 2.55 0 0 0 4.95 7.5q0 1.088.76 1.856.76.77 1.865.769"/></svg>